static_grf.mot
version=1
nRows=12
nColumns 19
inDegrees=yes
endheader
time	1_ground_force_vx	1_ground_force_vy	1_ground_force_vz	1_ground_force_px	1_ground_force_py	1_ground_force_pz	1_ground_torque_x	1_ground_torque_y	1_ground_torque_z	2_ground_force_vx	2_ground_force_vy	2_ground_force_vz	2_ground_force_px	2_ground_force_py	2_ground_force_pz	2_ground_torque_x	2_ground_torque_y	2_ground_torque_z
            0.005000	           -2.862014	          262.677051	           -5.974519	           -0.330151	            0.006423	           -0.455987	           -0.011726	            1.076260	           -0.024479	            1.323014	          296.278502	            8.001551	           -0.328140	            0.005116	           -0.646414	           -0.001469	           -0.328860	           -0.008881
            0.005500	           -3.044912	          261.955363	           -5.839588	           -0.330380	            0.006425	           -0.456520	           -0.012249	            1.053807	           -0.023492	            1.461488	          296.832163	            7.815750	           -0.328025	            0.005118	           -0.646890	           -0.001697	           -0.344638	           -0.009075
            0.006000	           -2.907255	          262.495763	           -5.745899	           -0.330367	            0.006422	           -0.455875	           -0.012412	            1.120638	           -0.024530	            1.649031	          296.831668	            8.144167	           -0.327894	            0.005119	           -0.647019	           -0.002119	           -0.381461	           -0.010466
            0.006500	           -3.227961	          262.675604	           -5.652618	           -0.330298	            0.006423	           -0.456006	           -0.011836	            0.963146	           -0.020726	            1.276062	          296.279170	            7.766931	           -0.328271	            0.005116	           -0.646477	           -0.001285	           -0.298316	           -0.007820
            0.007000	           -3.044783	          262.495736	           -5.745558	           -0.330261	            0.006424	           -0.456301	           -0.011368	            0.980048	           -0.021451	            1.604093	          296.279685	            7.954504	           -0.328008	            0.005116	           -0.646290	           -0.002089	           -0.385859	           -0.010360
            0.007500	           -3.090315	          261.413937	           -5.704226	           -0.330667	            0.006426	           -0.456769	           -0.011986	            1.013940	           -0.022125	            1.416714	          296.278841	            8.001511	           -0.328454	            0.005115	           -0.646416	           -0.001802	           -0.376937	           -0.010180
            0.008000	           -3.044735	          262.856071	           -5.698156	           -0.330124	            0.006421	           -0.455733	           -0.011738	            1.013358	           -0.021967	            1.369323	          296.461808	            8.283757	           -0.328139	            0.005117	           -0.646532	           -0.001770	           -0.383240	           -0.010709
            0.008500	           -2.815584	          261.955211	           -5.794301	           -0.330698	            0.006423	           -0.456079	           -0.011713	            1.089776	           -0.024105	            1.323699	          296.094194	            8.047822	           -0.328392	            0.005115	           -0.646234	           -0.001373	           -0.307199	           -0.008350
            0.009000	           -2.998746	          262.675648	           -5.653187	           -0.330465	            0.006421	           -0.455649	           -0.012075	            1.057678	           -0.022763	            1.601434	          297.016309	            7.957132	           -0.327774	            0.005119	           -0.646754	           -0.001912	           -0.354644	           -0.009501
            0.009500	           -2.953275	          261.595046	           -5.887218	           -0.330500	            0.006426	           -0.456875	           -0.011736	            1.039576	           -0.023396	            1.320315	          297.015461	            7.910323	           -0.327966	            0.005118	           -0.646879	           -0.001496	           -0.336458	           -0.008961
            0.010000	           -3.090136	          261.053209	           -5.659916	           -0.331014	            0.006426	           -0.456826	           -0.012413	            1.048646	           -0.022736	            1.366562	          297.199269	            8.051745	           -0.328285	            0.005119	           -0.647248	           -0.001655	           -0.360013	           -0.009754
            0.010500	           -3.044505	          261.594242	           -5.703567	           -0.330804	            0.006424	           -0.456343	           -0.012149	            1.043901	           -0.022760	            1.183211	          296.093185	            8.188666	           -0.328262	            0.005115	           -0.646297	           -0.001323	           -0.331139	           -0.009158
